<svg xmlns="http://www.w3.org/2000/svg" width="91" height="44.806" viewBox="0 0 91 44.806"><defs><style>.a{fill:#fff;}</style></defs><g transform="translate(0.021 0.014)"><path class="a" d="M90.878,26.943a.248.248,0,0,0-.231.069,22.567,22.567,0,0,1-1.94,1.814,14.3,14.3,0,0,1-1.482,1.064,4.184,4.184,0,0,1-1.1.5,3.246,3.246,0,0,1-.73.113,1.8,1.8,0,0,1-1.371-.408,1.945,1.945,0,0,1-.363-1.315c0-.273.028-.719.088-1.337a12.4,12.4,0,0,1,.316-1.836q.948-.546,1.984-1.089c.686-.364,1.324-.725,1.918-1.089a10.741,10.741,0,0,0,1.46-1.042A1.318,1.318,0,0,0,90,21.48a.628.628,0,0,0-.411-.568,2.779,2.779,0,0,0-.632-.248l-.092.091a.655.655,0,0,1,.044.27,2.632,2.632,0,0,1-1.368,2.018q-1.368.973-3.381,2.156l.663-1.974c.167-.5.316-.891.411-1.18s.183-.5.227-.628a1.054,1.054,0,0,0,.07-.339c0-.273-.167-.408-.5-.408a2.823,2.823,0,0,0-.616.113l-.948.248c-.335.091-.67.2-1,.314l-.869.314a.821.821,0,0,0-.066.179.11.11,0,0,0,.066.138c.243-.091.48-.166.708-.229a2.8,2.8,0,0,1,.708-.088c.335,0,.5.21.5.628a2.755,2.755,0,0,1-.032.364.248.248,0,0,0-.1.135,8.232,8.232,0,0,1-1.586,1.679,3.335,3.335,0,0,1-2.145.772,1.771,1.771,0,0,1-1.665-.816,4.075,4.075,0,0,1-.48-2.087,8.2,8.2,0,0,1,.161-1.676,3.749,3.749,0,0,1,.477-1.255c.06-.119.047-.2-.044-.248a.257.257,0,0,0-.275.022,1.616,1.616,0,0,1-.411.135l-.455.091a.842.842,0,0,0-.632.568,7.6,7.6,0,0,0-.272.838,6.349,6.349,0,0,0-2.648.863A9.435,9.435,0,0,0,71.447,23.2a6.757,6.757,0,0,1-1.333.533,6.423,6.423,0,0,1-1.687.248,4.188,4.188,0,0,1-1.166-.179,3.7,3.7,0,0,1-1.141-.568,2.958,2.958,0,0,1-1.21-2.51.187.187,0,0,0-.183-.091,3.291,3.291,0,0,0-.512.38c-.18.166-.335.314-.455.43a.786.786,0,0,0-.275.546,3.483,3.483,0,0,1,.161.565,4.792,4.792,0,0,1,.066.885,9.608,9.608,0,0,1-.411,2.909,8.481,8.481,0,0,1-1,2.2A5.555,5.555,0,0,1,61.065,29.9a2,2,0,0,1-1.141.477q-.821,0-.821-1.224a5.345,5.345,0,0,1,.227-1.255c.152-.559.344-1.161.572-1.814s.487-1.3.777-1.948.553-1.217.8-1.7q1.1-2.127,2.559-4.829t3.08-5.3Q68.736,9.7,70.335,7.5A18.377,18.377,0,0,1,73.3,4.167a14.129,14.129,0,0,1,1.735-1.29,8.908,8.908,0,0,1,1.482-.75,6.091,6.091,0,0,1,1.393-.361,11.134,11.134,0,0,1,1.507-.091,2.288,2.288,0,0,1,1.346.295,5.994,5.994,0,0,1,.632.521c.092.091.152.06.183-.091a6,6,0,0,0,.044-.907A1.441,1.441,0,0,0,81.185.42a1.717,1.717,0,0,0-1.264-.43,4.713,4.713,0,0,0-1.8.408,12.649,12.649,0,0,0-1.94,1.02,19.935,19.935,0,0,0-1.8,1.293c-.562.452-1.027.847-1.39,1.18a38.567,38.567,0,0,0-3.722,3.966q-1.757,2.152-3.333,4.465T62.939,16.99q-1.419,2.356-2.648,4.625c-.215.392-.487.916-.821,1.569s-.663,1.33-.983,2.039l-.073.176q-.227.292-.474.593a21.036,21.036,0,0,1-1.668,1.814A10.9,10.9,0,0,1,54.56,29.19a2.878,2.878,0,0,1-1.529.543,1.858,1.858,0,0,1-.888-.226,1.469,1.469,0,0,1-.663-.725,11.106,11.106,0,0,1-.524-1.255,14.026,14.026,0,0,1-.433-1.428c-.117-.486-.227-.97-.316-1.453a11.715,11.715,0,0,1-.183-1.315c.316-.273.708-.6,1.21-1s1.017-.784,1.551-1.177a18.451,18.451,0,0,1,1.58-1.045,7.527,7.527,0,0,1,1.324-.628c.316-.091.458-.226.458-.408a1.462,1.462,0,0,0-.253-.477.345.345,0,0,0-.25-.113,3.028,3.028,0,0,0-.983.612q-.8.612-1.757,1.362t-1.779,1.45c-.547.468-.9.762-1.052.885a.533.533,0,0,1-.044-.226c0-.122-.032-.182-.092-.182a4.12,4.12,0,0,0-.891.43c-.379.226-.569.461-.569.7a2.64,2.64,0,0,0,.044.59q-.948.863-1.779,1.588t-1.6,1.494c-.183.182-.316.273-.367.273s0-.119.139-.364c.152-.329.5-.973,1.049-1.927s1.172-2.039,1.87-3.263,1.431-2.479,2.193-3.765,1.444-2.425,2.054-3.423q1.46-2.356,3.081-4.6a34.549,34.549,0,0,1,3.311-3.966,9.363,9.363,0,0,1,3.4-2.4A8.426,8.426,0,0,1,64.5,3.207a4.418,4.418,0,0,1,.948.113,3.385,3.385,0,0,1,.948.364,2.108,2.108,0,0,1,.708.656,1.692,1.692,0,0,1,.272.941.7.7,0,0,1-.044.248.643.643,0,0,0-.047.248c0,.154.054.22.161.2s.161-.1.161-.248A3.634,3.634,0,0,1,67.947,4.6a2.184,2.184,0,0,0,.25-1,1.212,1.212,0,0,0-.25-.772,2.056,2.056,0,0,0-.616-.521,3.394,3.394,0,0,0-.8-.314,3.2,3.2,0,0,0-.8-.113,4.176,4.176,0,0,0-.844.091L64,2.155a7.516,7.516,0,0,0-1.984.769,14.936,14.936,0,0,0-1.9,1.255A18.286,18.286,0,0,0,58.361,5.72q-.847.838-1.58,1.654-1,1.133-2.076,2.51t-2.1,2.824q-1.03,1.428-1.962,2.824t-1.684,2.548q-1.6,2.542-2.692,4.393-.559.941-1.03,1.763a.946.946,0,0,0-.111.094,23.1,23.1,0,0,1-4.635,4.465,6.928,6.928,0,0,1-3.447,1.475,1.747,1.747,0,0,1-1.355-.534,1.722,1.722,0,0,1-.471-1.37,8.436,8.436,0,0,1,.366-2.469,8.094,8.094,0,0,1,.983-2.134,5.564,5.564,0,0,1,1.425-1.494,2.821,2.821,0,0,1,1.665-.568,1.266,1.266,0,0,1,1.4,1.277,2.223,2.223,0,0,1-.136.769l.136.047a10.988,10.988,0,0,0,.913-.772,1.536,1.536,0,0,0,.316-1.042c0-.879-.562-1.315-1.69-1.315a2.513,2.513,0,0,0-.913.226,10.162,10.162,0,0,0-3.4,2.425,11.924,11.924,0,0,0-1.927,2.717c-.262.286-.524.574-.8.847a29.855,29.855,0,0,1-2.351,2.156,12.96,12.96,0,0,1-2.158,1.443A3.938,3.938,0,0,1,27.319,31a1.028,1.028,0,0,1-.834-.26,1.1,1.1,0,0,1-.205-.678,8.826,8.826,0,0,1,.983-3.2q.983-2.152,3.081-5.852.275,0,.825.047a3.758,3.758,0,0,1,.821.135.121.121,0,0,0,.1-.034.119.119,0,0,0,.034-.1q0-.135-.227-.226a6.866,6.866,0,0,0-.686-.091c-.316-.031-.534-.047-.686-.047.152-.242.3-.477.433-.7a2.9,2.9,0,0,1,.436-.549L31.3,19.4l-1.28.361a1.43,1.43,0,0,0-.363.27,2.565,2.565,0,0,0-.411.628,7.117,7.117,0,0,0-3.7,1.064,14.916,14.916,0,0,0-3.159,2.538,14.055,14.055,0,0,0-1.867,2.422c-.461.442-.948.875-1.441,1.283A13.623,13.623,0,0,1,16.731,29.5a5.184,5.184,0,0,1-2.376.628q-1.321,0-1.324-1.453a6.24,6.24,0,0,1,.54-2.212A28.423,28.423,0,0,1,14.8,23.793q.7-1.359,1.438-2.585t1.141-1.948a29.363,29.363,0,0,0,4.382-2.924,37.619,37.619,0,0,0,3.763-3.48,38.469,38.469,0,0,0,3.058-3.64A39.694,39.694,0,0,0,30.87,5.764,23.893,23.893,0,0,0,32.308,2.94a5.449,5.449,0,0,0,.5-1.857.769.769,0,0,0-.231-.612.841.841,0,0,0-.591-.2,5.605,5.605,0,0,0-1.965.769,18.88,18.88,0,0,0-3.182,2.218,13.816,13.816,0,0,0-2.1,2.087q-.818,1.045-1.6,2.221-.632.941-1.39,2.2l-1.58,2.607q-.818,1.362-1.665,2.786l-1.621,2.742c-.316.515-.777,1.255-1.415,2.269s-1.264,2.055-1.918,3.172l-.066.119a6.211,6.211,0,0,1-.755.267,6.443,6.443,0,0,1-1.687.248,4.188,4.188,0,0,1-1.166-.179,3.7,3.7,0,0,1-1.141-.568,2.936,2.936,0,0,1-1.21-2.51.187.187,0,0,0-.183-.091,3.29,3.29,0,0,0-.512.392c-.18.166-.335.314-.455.43a.786.786,0,0,0-.275.546,3.483,3.483,0,0,1,.161.565,4.793,4.793,0,0,1,.066.885,9.608,9.608,0,0,1-.411,2.909,8.378,8.378,0,0,1-1,2.2A5.489,5.489,0,0,1,3.683,29.9a2,2,0,0,1-1.141.477q-.818,0-.821-1.224A5.345,5.345,0,0,1,1.948,27.9c.152-.559.344-1.161.572-1.814s.487-1.308.777-1.955.553-1.217.8-1.7Q5.193,20.3,6.652,17.6t3.081-5.3Q11.36,9.692,12.94,7.493A18.5,18.5,0,0,1,15.91,4.16a14.128,14.128,0,0,1,1.735-1.29,8.908,8.908,0,0,1,1.482-.75,6.008,6.008,0,0,1,1.4-.361,11.109,11.109,0,0,1,1.507-.091,2.288,2.288,0,0,1,1.346.295A5.99,5.99,0,0,1,24,2.5c.092.091.152.06.183-.091a6,6,0,0,0,.044-.907A1.441,1.441,0,0,0,23.793.436a1.717,1.717,0,0,0-1.264-.43,4.713,4.713,0,0,0-1.8.408,12.649,12.649,0,0,0-1.94,1.02,19.933,19.933,0,0,0-1.8,1.293c-.562.452-1.027.847-1.39,1.18a38.569,38.569,0,0,0-3.712,3.95q-1.757,2.152-3.333,4.465T5.556,16.99q-1.415,2.356-2.648,4.625c-.215.392-.487.916-.821,1.569s-.663,1.33-.983,2.039a17.67,17.67,0,0,0-.8,2.105A6.236,6.236,0,0,0-.014,29.1,1.853,1.853,0,0,0,.466,30.5a1.691,1.691,0,0,0,1.21.455,3.591,3.591,0,0,0,1.735-.53A6.578,6.578,0,0,0,5.19,28.907a8.806,8.806,0,0,0,1.393-2.378,8.273,8.273,0,0,0,.569-3.138,3.155,3.155,0,0,0,1.074.882,3.228,3.228,0,0,0,1.58.386,7.914,7.914,0,0,0,2.262-.361c.379-.116.777-.26,1.191-.433-.515.941-.976,1.823-1.374,2.676a6.116,6.116,0,0,0-.708,2.334,1.963,1.963,0,0,0,.524,1.384,2.246,2.246,0,0,0,1.712.565,6.46,6.46,0,0,0,2.739-.628,14.186,14.186,0,0,0,2.626-1.588c.442-.336.869-.687,1.286-1.057a5.784,5.784,0,0,0-.717,2.419.835.835,0,0,0,.948.941,2.974,2.974,0,0,0,1.466-.486A11.129,11.129,0,0,0,23.4,29.249,17,17,0,0,0,25,27.68q.777-.863,1.368-1.632a12.026,12.026,0,0,0-1.163,2.29,5.3,5.3,0,0,0-.389,1.71,1.736,1.736,0,0,0,.367,1.133,1.505,1.505,0,0,0,1.264.452,5.162,5.162,0,0,0,2.306-.628,14.089,14.089,0,0,0,2.528-1.679,29.717,29.717,0,0,0,2.528-2.334c.044-.044.085-.091.13-.138-.035.085-.073.166-.107.251a4.632,4.632,0,0,0-.367,1.726q0,2.083,2.528,2.083a5.566,5.566,0,0,0,1.074-.113,7.279,7.279,0,0,0,1.264-.386,11.021,11.021,0,0,0,1.826-1,17.365,17.365,0,0,0,1.87-1.428c.61-.527,1.2-1.089,1.782-1.676.224-.229.436-.458.632-.684a.342.342,0,0,1-.025.047c-.5.894-.923,1.647-1.264,2.269a14.912,14.912,0,0,1-.948,1.569.4.4,0,0,0-.044.182v.182a1.688,1.688,0,0,0,.18.7.568.568,0,0,0,.5.386.357.357,0,0,0,.366-.229,16.012,16.012,0,0,1,2.464-3.263q1.46-1.5,2.923-2.9.366,1.9.66,3.138a9.7,9.7,0,0,0,.632,1.927,2.2,2.2,0,0,0,.8.976,2.02,2.02,0,0,0,1.052.273,4.357,4.357,0,0,0,1.87-.546,10.373,10.373,0,0,0,1.415-1,19.255,19.255,0,0,0,1.58-1.45q.714-.734,1.412-1.541c-.123.333-.24.665-.341,1a6.236,6.236,0,0,0-.316,1.766,1.853,1.853,0,0,0,.48,1.406,1.691,1.691,0,0,0,1.229.433,3.582,3.582,0,0,0,1.725-.53,6.578,6.578,0,0,0,1.779-1.519,8.806,8.806,0,0,0,1.393-2.378,8.276,8.276,0,0,0,.572-3.138,3.155,3.155,0,0,0,1.071.882,3.231,3.231,0,0,0,1.58.386,7.911,7.911,0,0,0,2.259-.361,12.644,12.644,0,0,0,1.469-.555,11.044,11.044,0,0,0-.7.872,16.037,16.037,0,0,0-.979,1.541,10.209,10.209,0,0,0-.755,1.679,5.183,5.183,0,0,0-.3,1.676q0,1.456,1.646,1.453A3.564,3.564,0,0,0,71.2,30.6a8.55,8.55,0,0,0,1.8-1.255,11.715,11.715,0,0,0,1.542-1.719,16.028,16.028,0,0,0,1.185-1.861q.5-.941.825-1.654a2.933,2.933,0,0,0,1.207,1.155,3.329,3.329,0,0,0,1.523.386,4.126,4.126,0,0,0,2.528-.838,9.5,9.5,0,0,0,1.561-1.465c-.032.147-.063.314-.1.468-.076.348-.161.7-.253,1.064s-.18.7-.272,1a22.7,22.7,0,0,0-6.095,4.785,7.982,7.982,0,0,0-2.079,5.19,7.462,7.462,0,0,0,.48,2.824A5.331,5.331,0,0,0,76.326,40.6a4.828,4.828,0,0,0,1.848,1.089,7.224,7.224,0,0,0,2.237.339,9.571,9.571,0,0,0,3.832-.747,13.508,13.508,0,0,0,3.425-2.2c.152-.151.167-.267.047-.339a.219.219,0,0,0-.316.066,8.669,8.669,0,0,1-2.622,1.861,7.153,7.153,0,0,1-2.992.678,5.745,5.745,0,0,1-4.423-1.7,5.9,5.9,0,0,1-1.6-4.208,8.417,8.417,0,0,1,.363-2.51,7.4,7.4,0,0,1,1.185-2.265,13.765,13.765,0,0,1,2.123-2.178,24.513,24.513,0,0,1,3.22-2.221q-.186.772-.389,1.723a7.58,7.58,0,0,0-.205,1.406,2.31,2.31,0,0,0,.389,1.475,1.593,1.593,0,0,0,1.3.477,7.052,7.052,0,0,0,3.106-.907,16.426,16.426,0,0,0,4.107-3.357C91,27.012,90.979,26.974,90.878,26.943ZM21.155,13.25q1.428-2.278,2.455-3.847t1.69-2.51c.439-.628.784-1.117,1.027-1.45q.948-1.224,1.58-2a14.351,14.351,0,0,1,1.052-1.2,3.067,3.067,0,0,1,.708-.565,1.128,1.128,0,0,1,.5-.138c.395,0,.591.242.591.725a9.178,9.178,0,0,1-1,3.674,25.069,25.069,0,0,1-2.739,4.487,33.159,33.159,0,0,1-4.139,4.5,27.592,27.592,0,0,1-5.134,3.74Zm3.87,14.038a15.947,15.947,0,0,1-1.482,1.428,13.133,13.133,0,0,1-1.3.976,1.9,1.9,0,0,1-.847.364c-.18,0-.272-.122-.272-.364a5.925,5.925,0,0,1,.66-2.13,16.139,16.139,0,0,1,1.76-2.924,12.991,12.991,0,0,1,2.509-2.56,4.791,4.791,0,0,1,2.967-1.089l.035.025q-.55.941-1.232,2.178T26.406,25.5A14.577,14.577,0,0,1,25.025,27.288Zm50.489-2.221a16.054,16.054,0,0,1-1.39,2.334,13.738,13.738,0,0,1-1.735,2.018,2.622,2.622,0,0,1-1.69.863.5.5,0,0,1-.524-.273,1.509,1.509,0,0,1-.114-.59,5.121,5.121,0,0,1,.433-2.2,16.349,16.349,0,0,1,2.079-3.652,13.8,13.8,0,0,1,1.093-1.3,5.7,5.7,0,0,1,1.1-.907,1.981,1.981,0,0,1,1.052-.348c.123,0,.183.075.183.229,0,.333.016.678.047,1.042a6.941,6.941,0,0,0,.136.941,6.781,6.781,0,0,1-.667,1.836Z" transform="translate(0 0)"/><path class="a" d="M82.731,122.39c.113,0,.166.046.166.141a.428.428,0,0,1-.042.17c-.032.064-.074.152-.134.261l-1.838,3.283-1.827-3.318c-.042-.078-.081-.152-.113-.219a.385.385,0,0,1-.053-.166.124.124,0,0,1,.071-.113.254.254,0,0,1,.134-.039v-.23H76.71v.23a.322.322,0,0,1,.177.046.163.163,0,0,1,.078.159v5.82a.2.2,0,0,1-.078.173.3.3,0,0,1-.177.057v.23h1.912v-.23c-.237,0-.353-.078-.353-.23v-4.24h.025l2.516,4.71h.039l2.565-4.7h.025v4.24c0,.152-.113.23-.353.23v.23h2v-.23a.311.311,0,0,1-.18-.057.2.2,0,0,1-.074-.173v-5.834a.166.166,0,0,1,.074-.159.332.332,0,0,1,.18-.046v-.23H82.731Z" transform="translate(-52.745 -84.308)"/><path class="a" d="M112.982,127.021a.509.509,0,0,1-.311.092h-4.265v-1.767h2.5a.767.767,0,0,1,.4.085c.1.053.141.18.141.375h.23v-1.989h-.23c0,.194-.046.314-.141.353a.919.919,0,0,1-.4.067h-2.5v-1.583h4.134a.749.749,0,0,1,.378.071.24.24,0,0,1,.11.212h.23V121.25h-.23a.265.265,0,0,1-.11.223.636.636,0,0,1-.378.085h-5.82v.23a.237.237,0,0,1,.159.057.2.2,0,0,1,.071.173v5.8a.2.2,0,0,1-.071.173.258.258,0,0,1-.159.057v.23h5.951a1.512,1.512,0,0,1,.311.025c.081.018.12.088.12.216h.23V126.78h-.23a.279.279,0,0,1-.12.24Z" transform="translate(-73.293 -83.72)"/><path class="a" d="M135.951,128.312l-2.657-5.195c-.06-.11-.1-.2-.134-.269a.533.533,0,0,1-.042-.2.184.184,0,0,1,.088-.184,1.024,1.024,0,0,1,.177-.071v-.23h-2.156v.23a.746.746,0,0,1,.191.078.18.18,0,0,1,.088.177.58.58,0,0,1-.067.244l-.159.3-2.364,4.968a3.292,3.292,0,0,1-.184.318.382.382,0,0,1-.261.166v.23h1.813v-.23c-.163,0-.244-.046-.244-.141a1.06,1.06,0,0,1,.127-.382l.459-.908h3.117l.484.947a.792.792,0,0,1,.1.332.12.12,0,0,1-.078.113.3.3,0,0,1-.127.039v.23h2.247v-.23a2.743,2.743,0,0,1-.251-.127A.452.452,0,0,1,135.951,128.312ZM131,126.27l1.2-2.375,1.06,2.375Z" transform="translate(-88.299 -84.308)"/><path class="a" d="M159.688,121.541a.428.428,0,0,1-.223.064h-5.654a.428.428,0,0,1-.223-.064.254.254,0,0,1-.11-.244h-.23v1.788h.23a.254.254,0,0,1,.11-.244.428.428,0,0,1,.223-.064h2.12v5.081a.212.212,0,0,1-.071.173.258.258,0,0,1-.159.057v.23h1.965v-.23c-.187,0-.279-.078-.279-.23v-5.089h2.12a.428.428,0,0,1,.223.064.254.254,0,0,1,.11.244h.23V121.29h-.23A.254.254,0,0,1,159.688,121.541Z" transform="translate(-105.257 -83.746)"/><path class="a" d="M182.357,125.131a2.732,2.732,0,0,0-.83-.307,7.69,7.69,0,0,0-.951-.134l-.951-.064a5.382,5.382,0,0,1-.83-.1,1.576,1.576,0,0,1-.587-.23.519.519,0,0,1-.223-.459.477.477,0,0,1,.159-.353,1.24,1.24,0,0,1,.4-.237,3.1,3.1,0,0,1,.541-.134,4.15,4.15,0,0,1,.579-.042,3.77,3.77,0,0,1,.742.071,4.262,4.262,0,0,1,.707.184,2.9,2.9,0,0,1,.555.261,1.06,1.06,0,0,1,.353.3.735.735,0,0,1,.1.293l.127.053.88-1.6-.152-.1a.353.353,0,0,1-.258.078,1.166,1.166,0,0,1-.413-.1c-.166-.067-.353-.141-.611-.219s-.53-.148-.862-.216a5.987,5.987,0,0,0-1.173-.1,4.562,4.562,0,0,0-1.378.187,3.078,3.078,0,0,0-.972.477,1.9,1.9,0,0,0-.569.675,1.767,1.767,0,0,0-.184.781,1.8,1.8,0,0,0,.223.951,1.625,1.625,0,0,0,.587.572,2.551,2.551,0,0,0,.83.3,8.423,8.423,0,0,0,.951.127c.325.028.64.046.951.06a6.064,6.064,0,0,1,.83.081,1.647,1.647,0,0,1,.587.2.474.474,0,0,1,.223.435.558.558,0,0,1-.24.47,1.866,1.866,0,0,1-.576.283,3.357,3.357,0,0,1-.675.134q-.353.032-.562.032a3.673,3.673,0,0,1-.664-.071,5.3,5.3,0,0,1-.707-.184,3.825,3.825,0,0,1-.6-.262.915.915,0,0,1-.353-.3.427.427,0,0,1-.049-.2l-.127-.064-.707,1.544.18.1a.212.212,0,0,1,.166-.1.788.788,0,0,1,.332.1,4.593,4.593,0,0,0,.516.216,4.272,4.272,0,0,0,.816.2,7.358,7.358,0,0,0,1.219.085,8.217,8.217,0,0,0,1.131-.085,3.817,3.817,0,0,0,1.127-.325,2.474,2.474,0,0,0,.876-.664,1.64,1.64,0,0,0,.353-1.085,1.732,1.732,0,0,0-.223-.929A1.675,1.675,0,0,0,182.357,125.131Z" transform="translate(-121.202 -84.184)"/><path class="a" d="M200.334,123.629v-1.438h-.544v-.251h1.378v.251h-.551v1.438Zm1.021,0V121.94h.413l.428,1.35.413-1.35h.406v1.689h-.258v-1.413l-.435,1.413h-.254l-.438-1.438v1.438Z" transform="translate(-136.925 -84.166)"/></g></svg>