<svg xmlns="http://www.w3.org/2000/svg" width="48" height="37.333" viewBox="0 0 48 37.333"><defs><style>.a{fill:#bebebe;}</style></defs><path class="a" d="M25.183,46.617a2.129,2.129,0,0,1-2.417,2.258H20.742V44.358h2.033A2.123,2.123,0,0,1,25.183,46.617Zm3.958,5.217c0,.692.6,1.142,1.542,1.142a1.916,1.916,0,0,0,2.1-1.825v-.642l-1.958.125C29.717,50.708,29.142,51.117,29.142,51.833ZM48,35V64.333a4,4,0,0,1-4,4H4a4,4,0,0,1-4-4V35a4,4,0,0,1,4-4H44A4,4,0,0,1,48,35ZM10.65,44.85a2.309,2.309,0,0,0,1.842-.867,2.75,2.75,0,0,0,.642-1.975,2.74,2.74,0,0,0-1.825.942,2.614,2.614,0,0,0-.658,1.9Zm5.05,6.208a2.749,2.749,0,0,1-1.65-2.5,2.806,2.806,0,0,1,1.333-2.35,2.869,2.869,0,0,0-2.258-1.225c-1.017-.058-1.883.575-2.367.575s-1.225-.55-2.025-.533a2.989,2.989,0,0,0-2.542,1.55c-1.092,1.883-.283,4.667.775,6.2.517.758,1.142,1.592,1.958,1.558.775-.033,1.083-.5,2.017-.5s1.208.5,2.025.492c.85-.017,1.375-.758,1.9-1.517A7.053,7.053,0,0,0,15.7,51.058Zm11.283-4.45a3.567,3.567,0,0,0-3.742-3.733H18.975V54.242h1.767V50.358h2.442A3.609,3.609,0,0,0,26.983,46.608Zm7.5,1.975c0-1.642-1.317-2.7-3.333-2.7-1.875,0-3.258,1.075-3.308,2.542h1.592A1.551,1.551,0,0,1,31.1,47.267c1.083,0,1.683.5,1.683,1.433v.625l-2.2.133c-2.05.125-3.158.967-3.158,2.425a2.5,2.5,0,0,0,2.783,2.45,2.909,2.909,0,0,0,2.6-1.45h.033V54.25h1.633V48.583ZM43,45.992H41.208l-2.075,6.717H39.1l-2.075-6.717H35.167l2.992,8.275-.158.5a1.407,1.407,0,0,1-1.492,1.183c-.142,0-.408-.017-.517-.025v1.367a4.317,4.317,0,0,0,.675.042c1.725,0,2.533-.658,3.242-2.65Z" transform="translate(0 -31)"/></svg>