<svg xmlns="http://www.w3.org/2000/svg" width="48" height="37.333" viewBox="0 0 48 37.333"><defs><style>.a{fill:#bebebe;}</style></defs><path class="a" d="M40.242,64.442a.934.934,0,1,1-.933-.975A.931.931,0,0,1,40.242,64.442Zm-25.9-.975a.977.977,0,1,0,.908.975A.922.922,0,0,0,14.342,63.467Zm9.792-.025a.772.772,0,0,0-.792.725h1.592A.766.766,0,0,0,24.133,63.442Zm8.983.025a.976.976,0,1,0,.933.975A.922.922,0,0,0,33.117,63.467Zm8.825,2.175c0,.025.025.042.025.092,0,.025-.025.042-.025.092a.293.293,0,0,0-.042.067.108.108,0,0,1-.092.042c-.025.025-.042.025-.092.025a.165.165,0,0,1-.092-.025c-.025,0-.042-.025-.067-.042s-.042-.042-.042-.067a.152.152,0,0,1-.025-.092c0-.042,0-.067.025-.092a.157.157,0,0,1,.042-.092.293.293,0,0,1,.067-.042.152.152,0,0,1,.092-.025c.042,0,.067,0,.092.025.042.025.067.025.092.042S41.917,65.6,41.942,65.642Zm-.183.117c.042,0,.042-.025.067-.025a.1.1,0,0,0,0-.133c-.025,0-.042-.025-.092-.025H41.6v.292h.067V65.75h.025l.092.117h.067l-.092-.108ZM48,37V66.333a4,4,0,0,1-4,4H4a4,4,0,0,1-4-4V37a4,4,0,0,1,4-4H44A4,4,0,0,1,48,37ZM5.333,48.633A11.536,11.536,0,0,0,23.25,58.25a12.427,12.427,0,0,1,0-19.208A11.536,11.536,0,0,0,5.333,48.633ZM24,57.7a11.538,11.538,0,0,0,0-18.125A11.538,11.538,0,0,0,24,57.7ZM12.142,64.058a1.168,1.168,0,0,0-1.225-1.225,1.191,1.191,0,0,0-1.067.542,1.1,1.1,0,0,0-1.017-.542,1.058,1.058,0,0,0-.883.45v-.367H7.267v3.058H7.95c0-1.575-.208-2.517.75-2.517.85,0,.683.85.683,2.517h.658c0-1.525-.208-2.517.75-2.517.85,0,.683.833.683,2.517h.683V64.058Zm3.742-1.142h-.658v.367a1.2,1.2,0,0,0-.975-.45,1.611,1.611,0,0,0,0,3.217,1.155,1.155,0,0,0,.975-.45v.383h.658Zm3.375,2.133c0-1.25-1.908-.683-1.908-1.267,0-.475.992-.4,1.542-.092l.275-.542c-.783-.508-2.517-.5-2.517.683s1.908.692,1.908,1.25c0,.525-1.125.483-1.725.067l-.292.525C17.475,66.308,19.258,66.175,19.258,65.05Zm2.95.775-.183-.567c-.317.175-1.017.367-1.017-.342V63.533H22.1v-.617H21.008v-.933h-.683v.933h-.633v.608h.633v1.392c0,1.467,1.442,1.2,1.883.908Zm1.108-1.117h2.292c0-1.35-.617-1.883-1.45-1.883a1.5,1.5,0,0,0-1.517,1.608,1.663,1.663,0,0,0,2.817,1.183l-.317-.5C24.492,65.65,23.508,65.6,23.317,64.708Zm4.925-1.792a.978.978,0,0,0-1.267.367v-.367h-.683v3.058h.683V64.25a.7.7,0,0,1,1.067-.7l.2-.633Zm.883,1.525c0-.95.967-1.258,1.725-.7l.317-.542a1.649,1.649,0,1,0,0,2.5l-.317-.542C30.083,65.7,29.125,65.375,29.125,64.442Zm5.558-1.525H34v.367A1.515,1.515,0,1,0,34,65.6v.383h.683Zm2.808,0a1,1,0,0,0-1.267.367v-.367h-.658v3.058h.658V64.25a.7.7,0,0,1,1.067-.7l.2-.633Zm3.358-1.242h-.658v1.608a1.515,1.515,0,1,0,0,2.317v.383h.658Zm.633-6.258V55.8h.067v-.383h.158V55.35h-.383v.067Zm.55,10.317a.254.254,0,0,0-.025-.133c-.025-.025-.042-.067-.067-.092s-.067-.042-.092-.067c-.042,0-.092-.025-.133-.025a.886.886,0,0,1-.117.025.436.436,0,0,0-.092.067.13.13,0,0,0-.067.092.254.254,0,0,0-.025.133.242.242,0,0,0,.025.117.13.13,0,0,0,.067.092.289.289,0,0,0,.092.067.226.226,0,0,0,.117.025.254.254,0,0,0,.133-.025c.025-.025.067-.042.092-.067s.042-.067.067-.092A.242.242,0,0,0,42.033,65.733ZM42.3,55.342h-.117l-.133.292-.133-.292H41.8v.45h.067V55.45l.133.292h.092l.117-.292v.342H42.3Zm.367-6.708a11.536,11.536,0,0,0-17.917-9.6,12.427,12.427,0,0,1,0,19.208,11.536,11.536,0,0,0,17.917-9.608Z" transform="translate(0 -33)"/></svg>