<svg xmlns="http://www.w3.org/2000/svg" width="48.428" height="37.667" viewBox="0 0 48.428 37.667"><defs><style>.a{fill:#bebebe;}</style></defs><path class="a" d="M41.4,47.874c-.748,0-1.572.563-1.572,1.909h3.086C42.913,48.437,42.131,47.874,41.4,47.874Zm-9.871.219a1.79,1.79,0,0,0-1.429.589l.017,4.439a1.814,1.814,0,0,0,1.412.563c1.1,0,1.841-1.2,1.841-2.808C33.37,49.311,32.613,48.084,31.529,48.092ZM44.393,32H4.036A4.037,4.037,0,0,0,0,36.036v29.6a4.037,4.037,0,0,0,4.036,4.036H44.393a4.037,4.037,0,0,0,4.036-4.036v-29.6A4.037,4.037,0,0,0,44.393,32ZM10.274,52.944c0,2.152-1.707,3.371-4.2,3.388a8.263,8.263,0,0,1-3.262-.681V52.8a7.637,7.637,0,0,0,3.271.95c.664,0,1.143-.177,1.143-.731,0-1.429-4.54-.891-4.54-4.2,0-2.119,1.614-3.38,4.036-3.38a7.882,7.882,0,0,1,2.968.547V48.8a6.714,6.714,0,0,0-2.968-.765c-.631,0-1.017.185-1.017.647,0,1.345,4.565.706,4.565,4.263Zm5.784-4.759h-2.27v4.246c0,1.757,1.892,1.211,2.27,1.059v2.43a4.594,4.594,0,0,1-2.094.4,3.005,3.005,0,0,1-3.1-3.069l.017-9.576,2.917-.622v2.59h2.262Zm6.222.2A2.119,2.119,0,0,0,20,49.009v7.1H17.017V45.637H19.6l.185.883a2.032,2.032,0,0,1,2.489-.883h.008ZM25.988,56.1h-3V45.637h3Zm0-12.015-3,.639V42.3l3-.639Zm6.23,12.233a3.365,3.365,0,0,1-2.11-.757l-.008,3.38-2.985.631V45.637h2.632l.151.74a3.372,3.372,0,0,1,2.337-.933c2.094,0,4.069,1.892,4.069,5.364,0,3.792-1.951,5.507-4.086,5.515ZM45.7,51.994H39.861c.135,1.4,1.16,1.808,2.321,1.808a6.3,6.3,0,0,0,2.934-.664v2.4a6.755,6.755,0,0,1-3.313.774c-2.909,0-4.944-1.824-4.944-5.423,0-3.044,1.724-5.457,4.565-5.457s4.313,2.413,4.313,5.473C45.738,51.2,45.713,51.825,45.7,51.994Z" transform="translate(0 -32)"/></svg>