<svg xmlns="http://www.w3.org/2000/svg" width="48" height="37.333" viewBox="0 0 48 37.333"><defs><style>.a{fill:#bebebe;}</style></defs><path class="a" d="M39.175,48.608s.633,3.1.775,3.75H37.167c.275-.742,1.333-3.625,1.333-3.625-.017.025.275-.758.442-1.242l.233,1.117ZM48,36V65.333a4,4,0,0,1-4,4H4a4,4,0,0,1-4-4V36a4,4,0,0,1,4-4H44A4,4,0,0,1,48,36ZM12.708,56.933,17.975,44H14.433l-3.275,8.833L10.8,51.042l-1.167-5.95A1.394,1.394,0,0,0,8.117,44H2.725l-.058.258a13.224,13.224,0,0,1,3.517,1.425l2.983,11.25Zm7.867.017L22.675,44h-3.35L17.233,56.95Zm11.658-4.233c.017-1.475-.883-2.6-2.808-3.525-1.175-.592-1.892-.992-1.892-1.6.017-.55.608-1.117,1.925-1.117a5.742,5.742,0,0,1,2.492.492l.3.142.458-2.8a8.322,8.322,0,0,0-3-.55c-3.308,0-5.633,1.767-5.65,4.283-.025,1.858,1.667,2.892,2.933,3.517,1.292.633,1.733,1.05,1.733,1.608-.017.867-1.05,1.267-2.008,1.267a6.675,6.675,0,0,1-3.142-.692l-.442-.208-.467,2.908a10.225,10.225,0,0,0,3.733.692c3.517.008,5.808-1.733,5.833-4.417ZM44,56.95,41.3,44H38.708a1.648,1.648,0,0,0-1.75,1.075L31.983,56.95H35.5s.575-1.6.7-1.942h4.3c.1.458.4,1.942.4,1.942Z" transform="translate(0 -32)"/></svg>