<svg xmlns="http://www.w3.org/2000/svg" width="39.219" height="39.219" viewBox="0 0 39.219 39.219"><defs><style>.a{fill:#bebebe;}</style></defs><path class="a" d="M28.281,20.3l9.71,9.71a.95.95,0,0,1,0,1.344L36.2,33.136a.95.95,0,0,1-1.344,0l-7.251-7.251-7.251,7.251a.95.95,0,0,1-1.344,0l-1.787-1.787a.95.95,0,0,1,0-1.344l9.71-9.71A.95.95,0,0,1,28.281,20.3Zm18.937,7.314A19.609,19.609,0,1,1,27.609,8,19.606,19.606,0,0,1,47.219,27.609Zm-3.8,0A15.814,15.814,0,1,0,27.609,43.423,15.81,15.81,0,0,0,43.423,27.609Z" transform="translate(-8 -8)"/></svg>