<svg xmlns="http://www.w3.org/2000/svg" width="24.364" height="21.319" viewBox="0 0 24.364 21.319"><defs><style>.a{fill:rgba(0,0,0,0.3);}.b,.c{stroke:none;}.c{fill:#f4bd13;}</style></defs><g class="a" transform="translate(0.012 -31.967)"><path class="b" d="M 12.16794586181641 52.78570175170898 C 11.89712619781494 52.78570175170898 11.64186668395996 52.67619323730469 11.44920635223389 52.47735977172852 L 2.241406202316284 42.96977996826172 C 1.048326253890991 41.73636245727539 0.4117362201213837 40.02851104736328 0.4950762391090393 38.28435134887695 C 0.579126238822937 36.52537155151367 1.35434627532959 34.93451309204102 2.677936315536499 33.8048210144043 C 3.704996347427368 32.92956161499023 4.972866058349609 32.46680068969727 6.344186305999756 32.46680068969727 C 8.022426605224609 32.46680068969727 9.673295974731445 33.17846298217773 10.87349605560303 34.4193000793457 L 11.8115062713623 35.38589096069336 L 12.17032623291016 35.75564193725586 L 12.52914619445801 35.38589096069336 L 13.46658611297607 34.41989135742188 C 14.66962623596191 33.17859268188477 16.32118606567383 32.46680068969727 17.9980354309082 32.46680068969727 C 19.36831665039062 32.46680068969727 20.63564682006836 32.92956161499023 21.66299629211426 33.80507278442383 C 22.98672676086426 34.93487167358398 23.76174545288086 36.52595138549805 23.84501647949219 38.28495025634766 C 23.92757606506348 40.02897262573242 23.28956604003906 41.73649215698242 22.09458541870117 42.96968078613281 L 12.8865966796875 52.47745132446289 C 12.69402599334717 52.67619323730469 12.43876647949219 52.78570175170898 12.16794586181641 52.78570175170898 Z"/><path class="c" d="M 6.344196319580078 32.96680068969727 C 5.093345642089844 32.96680068969727 3.937616348266602 33.38825988769531 3.002536773681641 34.18513107299805 C 1.785026550292969 35.22428131103516 1.071895599365234 36.68855285644531 0.9945068359375 38.30821228027344 C 0.9177265167236328 39.91508102416992 1.503265380859375 41.48752975463867 2.600576400756836 42.62194061279297 L 11.80828666687012 52.12942123413086 C 11.90592670440674 52.23019027709961 12.03366661071777 52.28569030761719 12.16794586181641 52.28569030761719 C 12.30222606658936 52.28569030761719 12.42996597290039 52.23019027709961 12.52742576599121 52.12961196899414 L 21.73550605773926 42.62173080444336 C 22.83478546142578 41.48731231689453 23.42162704467773 39.91522979736328 23.3455753326416 38.30860137939453 C 23.26890563964844 36.68899154663086 22.55597686767578 35.22458267211914 21.33869552612305 34.18563079833984 C 20.40301704406738 33.38825988769531 19.24783706665039 32.96680068969727 17.99802589416504 32.96680068969727 C 16.45572662353516 32.96680068969727 14.93502616882324 33.6231803894043 13.82540607452393 34.76810073852539 L 12.88796615600586 35.73410034179688 L 12.17032623291016 36.47360229492188 L 11.45268630981445 35.73410034179688 L 10.51410579681396 34.76692199707031 C 9.407576560974121 33.62292098999023 7.887706756591797 32.96680068969727 6.344196319580078 32.96680068969727 M 6.34419059753418 31.96680068969727 C 8.118158340454102 31.96680068969727 9.906233787536621 32.70009994506836 11.23288631439209 34.07168197631836 L 12.17032623291016 35.03768157958984 L 13.10776615142822 34.07168197631836 C 14.43720817565918 32.699951171875 16.22464942932129 31.966796875 17.99802398681641 31.96680068969727 C 19.41750144958496 31.96680450439453 20.82797050476074 32.43653869628906 21.98730659484863 33.42451095581055 C 24.97570610046387 35.97512054443359 25.13274574279785 40.55288314819336 22.45364570617676 43.31763076782227 L 13.24576663970947 52.82530212402344 C 12.94835662841797 53.13223266601562 12.55815124511719 53.28569793701172 12.16794586181641 53.28569793701172 C 11.77774143218994 53.28569793701172 11.38753604888916 53.13223266601562 11.09012603759766 52.82530212402344 L 1.882236480712891 43.31763076782227 C -0.7920932769775391 40.55288314819336 -0.6350536346435547 35.97512054443359 2.353336334228516 33.42451095581055 C 3.51283073425293 32.43640518188477 4.923887252807617 31.96680068969727 6.34419059753418 31.96680068969727 Z"/></g></svg>