<svg xmlns="http://www.w3.org/2000/svg" width="11.002" height="11" viewBox="0 0 11.002 11"><defs><style>.a{fill:#bebebe;}</style></defs><path class="a" d="M5.427,34.5a2.82,2.82,0,1,0,2.82,2.82A2.816,2.816,0,0,0,5.427,34.5Zm0,4.654a1.834,1.834,0,1,1,1.834-1.834A1.837,1.837,0,0,1,5.427,39.159Zm3.593-4.769a.658.658,0,1,1-.658-.658A.656.656,0,0,1,9.021,34.389Zm1.868.668a3.255,3.255,0,0,0-.889-2.3,3.277,3.277,0,0,0-2.3-.889c-.908-.052-3.63-.052-4.538,0a3.272,3.272,0,0,0-2.3.886,3.266,3.266,0,0,0-.889,2.3c-.052.908-.052,3.63,0,4.538a3.255,3.255,0,0,0,.889,2.3,3.281,3.281,0,0,0,2.3.889c.908.052,3.63.052,4.538,0A3.255,3.255,0,0,0,10,41.9a3.277,3.277,0,0,0,.889-2.3c.052-.908.052-3.628,0-4.536Zm-1.173,5.51A1.856,1.856,0,0,1,8.67,41.613a12.123,12.123,0,0,1-3.242.221,12.217,12.217,0,0,1-3.242-.221,1.856,1.856,0,0,1-1.046-1.046,12.123,12.123,0,0,1-.221-3.242,12.217,12.217,0,0,1,.221-3.242,1.856,1.856,0,0,1,1.046-1.046,12.123,12.123,0,0,1,3.242-.221,12.217,12.217,0,0,1,3.242.221,1.856,1.856,0,0,1,1.046,1.046,12.123,12.123,0,0,1,.221,3.242A12.116,12.116,0,0,1,9.716,40.567Z" transform="translate(0.075 -31.825)"/></svg>