<svg xmlns="http://www.w3.org/2000/svg" width="13.544" height="11" viewBox="0 0 13.544 11"><defs><style>.a{fill:#bebebe;}</style></defs><path class="a" d="M12.152,50.823c.009.12.009.241.009.361a7.844,7.844,0,0,1-7.9,7.9A7.844,7.844,0,0,1,0,57.836a5.742,5.742,0,0,0,.67.034,5.559,5.559,0,0,0,3.446-1.186,2.781,2.781,0,0,1-2.6-1.925,3.5,3.5,0,0,0,.524.043,2.936,2.936,0,0,0,.73-.095A2.776,2.776,0,0,1,.55,51.984v-.034A2.8,2.8,0,0,0,1.8,52.3a2.78,2.78,0,0,1-.859-3.712,7.89,7.89,0,0,0,5.723,2.9,3.133,3.133,0,0,1-.069-.636,2.778,2.778,0,0,1,4.8-1.9,5.465,5.465,0,0,0,1.762-.67,2.768,2.768,0,0,1-1.22,1.53,5.565,5.565,0,0,0,1.6-.43A5.967,5.967,0,0,1,12.152,50.823Z" transform="translate(0 -48.082)"/></svg>